<svg width="189" height="97" viewBox="0 0 189 97" fill="none" xmlns="http://www.w3.org/2000/svg">
<path d="M89.848 77.8V60.136H91.648V63.016L91.36 62.512C91.872 61.696 92.552 61.048 93.4 60.568C94.264 60.088 95.248 59.848 96.352 59.848C97.568 59.848 98.648 60.144 99.592 60.736C100.552 61.312 101.304 62.104 101.848 63.112C102.408 64.12 102.688 65.272 102.688 66.568C102.688 67.848 102.408 69 101.848 70.024C101.304 71.032 100.552 71.832 99.592 72.424C98.648 73 97.568 73.288 96.352 73.288C95.248 73.288 94.248 73.04 93.352 72.544C92.472 72.032 91.808 71.312 91.36 70.384L91.648 70.12V77.8H89.848ZM96.256 71.488C97.12 71.488 97.888 71.272 98.56 70.84C99.248 70.408 99.784 69.824 100.168 69.088C100.568 68.336 100.768 67.496 100.768 66.568C100.768 65.624 100.568 64.784 100.168 64.048C99.784 63.312 99.248 62.728 98.56 62.296C97.888 61.864 97.12 61.648 96.256 61.648C95.392 61.648 94.608 61.864 93.904 62.296C93.216 62.728 92.664 63.32 92.248 64.072C91.848 64.808 91.648 65.64 91.648 66.568C91.648 67.496 91.848 68.336 92.248 69.088C92.664 69.824 93.216 70.408 93.904 70.84C94.608 71.272 95.392 71.488 96.256 71.488ZM111.88 73.288C110.664 73.288 109.56 73 108.568 72.424C107.576 71.832 106.784 71.032 106.192 70.024C105.616 69 105.328 67.84 105.328 66.544C105.328 65.264 105.616 64.12 106.192 63.112C106.768 62.104 107.544 61.312 108.52 60.736C109.512 60.144 110.632 59.848 111.88 59.848C113.128 59.848 114.24 60.136 115.216 60.712C116.208 61.288 116.984 62.08 117.544 63.088C118.12 64.096 118.408 65.248 118.408 66.544C118.408 67.856 118.112 69.024 117.52 70.048C116.928 71.056 116.136 71.848 115.144 72.424C114.168 73 113.08 73.288 111.88 73.288ZM111.88 71.488C112.744 71.488 113.52 71.272 114.208 70.84C114.912 70.408 115.464 69.816 115.864 69.064C116.28 68.312 116.488 67.472 116.488 66.544C116.488 65.616 116.28 64.784 115.864 64.048C115.464 63.312 114.912 62.728 114.208 62.296C113.52 61.864 112.744 61.648 111.88 61.648C111.016 61.648 110.232 61.864 109.528 62.296C108.84 62.728 108.288 63.312 107.872 64.048C107.456 64.784 107.248 65.616 107.248 66.544C107.248 67.472 107.456 68.312 107.872 69.064C108.288 69.816 108.84 70.408 109.528 70.84C110.232 71.272 111.016 71.488 111.88 71.488ZM121.582 73V60.136H123.382V62.248L123.142 61.936C123.446 61.328 123.902 60.848 124.51 60.496C125.134 60.144 125.886 59.968 126.766 59.968H127.582V61.768H126.454C125.526 61.768 124.782 62.056 124.222 62.632C123.662 63.208 123.382 64.024 123.382 65.08V73H121.582ZM134.612 73.144C133.46 73.144 132.572 72.808 131.948 72.136C131.324 71.464 131.012 70.504 131.012 69.256V61.936H128.636V60.136H129.236C129.78 60.136 130.212 59.96 130.532 59.608C130.852 59.24 131.012 58.784 131.012 58.24V57.16H132.812V60.136H135.644V61.936H132.812V69.256C132.812 69.688 132.876 70.072 133.004 70.408C133.132 70.728 133.348 70.984 133.652 71.176C133.972 71.368 134.396 71.464 134.924 71.464C135.052 71.464 135.204 71.456 135.38 71.44C135.556 71.424 135.708 71.408 135.836 71.392V73C135.644 73.048 135.428 73.08 135.188 73.096C134.948 73.128 134.756 73.144 134.612 73.144ZM140.316 73V61.936H137.748V60.136H140.316V58.984C140.316 58.088 140.516 57.336 140.916 56.728C141.316 56.104 141.844 55.632 142.5 55.312C143.156 54.992 143.86 54.832 144.612 54.832C144.772 54.832 144.956 54.848 145.164 54.88C145.372 54.896 145.54 54.92 145.668 54.952V56.584C145.556 56.552 145.404 56.536 145.212 56.536C145.02 56.52 144.884 56.512 144.804 56.512C144.036 56.512 143.396 56.696 142.884 57.064C142.372 57.432 142.116 58.072 142.116 58.984V60.136H145.26V61.936H142.116V73H140.316ZM153.716 73.288C152.5 73.288 151.396 73 150.404 72.424C149.412 71.832 148.62 71.032 148.028 70.024C147.452 69 147.164 67.84 147.164 66.544C147.164 65.264 147.452 64.12 148.028 63.112C148.604 62.104 149.38 61.312 150.356 60.736C151.348 60.144 152.468 59.848 153.716 59.848C154.964 59.848 156.076 60.136 157.052 60.712C158.044 61.288 158.82 62.08 159.38 63.088C159.956 64.096 160.244 65.248 160.244 66.544C160.244 67.856 159.948 69.024 159.356 70.048C158.764 71.056 157.972 71.848 156.98 72.424C156.004 73 154.916 73.288 153.716 73.288ZM153.716 71.488C154.58 71.488 155.356 71.272 156.044 70.84C156.748 70.408 157.3 69.816 157.7 69.064C158.116 68.312 158.324 67.472 158.324 66.544C158.324 65.616 158.116 64.784 157.7 64.048C157.3 63.312 156.748 62.728 156.044 62.296C155.356 61.864 154.58 61.648 153.716 61.648C152.852 61.648 152.068 61.864 151.364 62.296C150.676 62.728 150.124 63.312 149.708 64.048C149.292 64.784 149.084 65.616 149.084 66.544C149.084 67.472 149.292 68.312 149.708 69.064C150.124 69.816 150.676 70.408 151.364 70.84C152.068 71.272 152.852 71.488 153.716 71.488ZM163.418 73V54.832H165.218V73H163.418ZM168.903 73V60.136H170.703V73H168.903ZM168.903 57.76V55.12H170.703V57.76H168.903ZM180.411 73.288C179.195 73.288 178.091 73 177.099 72.424C176.107 71.832 175.315 71.032 174.723 70.024C174.147 69 173.859 67.84 173.859 66.544C173.859 65.264 174.147 64.12 174.723 63.112C175.299 62.104 176.075 61.312 177.051 60.736C178.043 60.144 179.163 59.848 180.411 59.848C181.659 59.848 182.771 60.136 183.747 60.712C184.739 61.288 185.515 62.08 186.075 63.088C186.651 64.096 186.939 65.248 186.939 66.544C186.939 67.856 186.643 69.024 186.051 70.048C185.459 71.056 184.667 71.848 183.675 72.424C182.699 73 181.611 73.288 180.411 73.288ZM180.411 71.488C181.275 71.488 182.051 71.272 182.739 70.84C183.443 70.408 183.995 69.816 184.395 69.064C184.811 68.312 185.019 67.472 185.019 66.544C185.019 65.616 184.811 64.784 184.395 64.048C183.995 63.312 183.443 62.728 182.739 62.296C182.051 61.864 181.275 61.648 180.411 61.648C179.547 61.648 178.763 61.864 178.059 62.296C177.371 62.728 176.819 63.312 176.403 64.048C175.987 64.784 175.779 65.616 175.779 66.544C175.779 67.472 175.987 68.312 176.403 69.064C176.819 69.816 177.371 70.408 178.059 70.84C178.763 71.272 179.547 71.488 180.411 71.488Z" fill="#439F5C"/>
<path d="M88 77.2H188.259V78.16H88V77.2Z" fill="#439F5C"/>
<path d="M84.0624 61.2245C77.1329 80.2633 55.8671 90.0256 36.5475 82.9938C17.2279 75.962 7.2125 54.8144 14.1421 35.7755C21.0717 16.7367 42.3374 6.97442 61.657 14.0062C80.9766 21.0379 90.992 42.1856 84.0624 61.2245Z" fill="#1E1E1E" stroke="#439F5C" stroke-width="2"/>
<path d="M34.0005 36.6882C34.0005 35.2253 35.1864 34.0393 36.6494 34.0393H44.2631C45.7261 34.0393 46.912 35.2253 46.912 36.6882V36.6882C46.912 38.1511 45.7261 39.3371 44.2631 39.3371H36.6494C35.1864 39.3371 34.0005 38.1511 34.0005 36.6882V36.6882Z" fill="#439F5C"/>
<path d="M0 60.1198C0 58.7247 1.13095 57.5937 2.52604 57.5937H29.1885C30.5836 57.5937 31.7146 58.7247 31.7146 60.1198V60.1198C31.7146 61.5149 30.5836 62.6458 29.1885 62.6458H2.52604C1.13095 62.6458 0 61.5149 0 60.1198V60.1198Z" fill="#439F5C"/>
<path d="M38.2952 34.0173H30.4942C25.8012 34.0173 21.9949 37.8184 21.9886 42.5115C21.9822 47.2215 25.8047 51.0399 30.5147 51.0286L42.3757 51C44.1504 50.9957 45.5931 52.4298 45.5994 54.2044C45.6058 55.985 44.1641 57.4319 42.3834 57.4319H31.6551C28.9449 57.4319 27.9571 61.0017 30.2819 62.3949C30.6968 62.6435 31.1714 62.7748 31.6551 62.7748H42.2625C46.9536 62.7748 50.7547 58.9686 50.7483 54.2775C50.742 49.5954 46.9446 45.8032 42.2625 45.8032H30.3917C28.6127 45.8032 27.1705 44.3612 27.1702 42.5822C27.17 40.8028 28.6123 39.3603 30.3917 39.3603H38.2952C41.1794 39.3603 42.0168 35.4221 39.3823 34.2485C39.0401 34.0961 38.6698 34.0173 38.2952 34.0173Z" fill="#439F5C"/>
<path d="M36.6616 43.5187C36.6616 42.8779 36.8712 42.2547 37.2584 41.744V41.744C38.9591 39.5014 42.5356 40.7041 42.5356 43.5187V65.0849C42.5356 66.707 41.2207 68.0219 39.5986 68.0219V68.0219C37.9766 68.0219 36.6616 66.707 36.6616 65.0849V43.5187Z" fill="#439F5C"/>
<path d="M38.2185 40.4883L21.217 63.0553C19.659 65.1232 21.1431 68.0171 23.7598 68.0135C24.8493 68.012 25.8694 67.4702 26.4675 66.5752L31.5628 58.9505L42.1424 43.1188C42.3987 42.7353 42.5353 42.2882 42.5353 41.8327C42.5353 39.5815 39.5922 38.6649 38.2185 40.4883Z" fill="#439F5C"/>
<path d="M54.533 68.0951L55.2881 68.1712L55.3428 67.4143L56.5526 50.6874L60.0389 64.2693H61.4682L62.7196 59.394L63.971 64.2693H65.4003L68.9265 50.532L70.1476 67.4143L70.2023 68.1712L70.9574 68.0952L74.7069 67.7173L75.4206 67.6454L75.3688 66.93L73.0187 34.436L71.5682 34.3058L69.7459 41.4051L69.2077 33.9641L67.7572 33.8339L62.7196 53.4591L57.7219 33.9894L56.2714 34.1196L55.7333 41.5605L53.911 34.4612L52.4604 34.5915L50.1215 66.93L50.0698 67.6454L50.7834 67.7173L54.533 68.0951Z" fill="#439F5C" stroke="#439F5C" stroke-width="1.4756"/>
</svg>
